<mxfile host="65bd71144e">
    <diagram id="Qzf1SK1yz7rLOW2mzVNX" name="Page-1">
        <mxGraphModel dx="454" dy="488" grid="1" gridSize="10" guides="1" tooltips="1" connect="1" arrows="1" fold="1" page="1" pageScale="1" pageWidth="827" pageHeight="1169" math="0" shadow="0">
            <root>
                <mxCell id="0"/>
                <mxCell id="1" parent="0"/>
                <mxCell id="2" value="" style="group" vertex="1" connectable="0" parent="1">
                    <mxGeometry x="110" y="130" width="338" height="600" as="geometry"/>
                </mxCell>
                <mxCell id="Nn5DPpM4tVmi9wcYqOHC-26" value="" style="strokeWidth=1;shadow=0;dashed=0;align=center;html=1;shape=mxgraph.mockup.containers.rrect;rSize=0;strokeColor=#666666;" parent="2" vertex="1">
                    <mxGeometry width="338" height="599.0415335463259" as="geometry"/>
                </mxCell>
                <mxCell id="Nn5DPpM4tVmi9wcYqOHC-119" value="" style="html=1;shadow=0;dashed=0;shape=mxgraph.bootstrap.rrect;rSize=5;strokeColor=none;html=1;whiteSpace=wrap;fillColor=#B8B8B8;fontColor=#ffffff;sketch=0;" parent="2" vertex="1">
                    <mxGeometry x="87.035" y="81.46964856230032" width="245.04999999999998" height="38.33865814696486" as="geometry"/>
                </mxCell>
                <mxCell id="Nn5DPpM4tVmi9wcYqOHC-120" value="1" style="strokeColor=inherit;fillColor=inherit;gradientColor=inherit;fontColor=inherit;html=1;shadow=0;dashed=0;shape=mxgraph.bootstrap.leftButton;rSize=5;perimeter=none;whiteSpace=wrap;resizeHeight=1;sketch=0;" parent="Nn5DPpM4tVmi9wcYqOHC-119" vertex="1">
                    <mxGeometry width="30" height="38.33865814696486" relative="1" as="geometry">
                        <mxPoint x="10" as="offset"/>
                    </mxGeometry>
                </mxCell>
                <mxCell id="Nn5DPpM4tVmi9wcYqOHC-121" value="2" style="strokeColor=inherit;fillColor=inherit;gradientColor=inherit;fontColor=inherit;html=1;shadow=0;dashed=0;perimeter=none;whiteSpace=wrap;resizeHeight=1;sketch=0;" parent="Nn5DPpM4tVmi9wcYqOHC-119" vertex="1">
                    <mxGeometry width="30" height="38.33865814696486" relative="1" as="geometry">
                        <mxPoint x="41" as="offset"/>
                    </mxGeometry>
                </mxCell>
                <mxCell id="Nn5DPpM4tVmi9wcYqOHC-122" value="3" style="strokeColor=inherit;fillColor=inherit;gradientColor=inherit;fontColor=inherit;html=1;shadow=0;dashed=0;perimeter=none;whiteSpace=wrap;resizeHeight=1;sketch=0;" parent="Nn5DPpM4tVmi9wcYqOHC-119" vertex="1">
                    <mxGeometry width="30" height="38.33865814696486" relative="1" as="geometry">
                        <mxPoint x="75" as="offset"/>
                    </mxGeometry>
                </mxCell>
                <mxCell id="Nn5DPpM4tVmi9wcYqOHC-140" value="7" style="strokeColor=inherit;fillColor=inherit;gradientColor=inherit;fontColor=inherit;html=1;shadow=0;dashed=0;perimeter=none;whiteSpace=wrap;resizeHeight=1;sketch=0;" parent="Nn5DPpM4tVmi9wcYqOHC-119" vertex="1">
                    <mxGeometry x="200.49840969387753" width="30.00612244897959" height="38.33865814696486" as="geometry"/>
                </mxCell>
                <mxCell id="Nn5DPpM4tVmi9wcYqOHC-139" value="4" style="strokeColor=inherit;fillColor=inherit;gradientColor=inherit;fontColor=inherit;html=1;shadow=0;dashed=0;perimeter=none;whiteSpace=wrap;resizeHeight=1;sketch=0;" parent="Nn5DPpM4tVmi9wcYqOHC-119" vertex="1">
                    <mxGeometry x="107.51716507421149" width="30.00612244897959" height="38.33865814696486" as="geometry"/>
                </mxCell>
                <mxCell id="Nn5DPpM4tVmi9wcYqOHC-138" value="5" style="strokeColor=inherit;fillColor=inherit;gradientColor=inherit;fontColor=inherit;html=1;shadow=0;dashed=0;perimeter=none;whiteSpace=wrap;resizeHeight=1;sketch=0;" parent="Nn5DPpM4tVmi9wcYqOHC-119" vertex="1">
                    <mxGeometry x="140.48616479591837" width="30.00612244897959" height="38.33865814696486" as="geometry"/>
                </mxCell>
                <mxCell id="Nn5DPpM4tVmi9wcYqOHC-130" value="6" style="strokeColor=inherit;fillColor=inherit;gradientColor=inherit;fontColor=inherit;html=1;shadow=0;dashed=0;perimeter=none;whiteSpace=wrap;resizeHeight=1;sketch=0;" parent="Nn5DPpM4tVmi9wcYqOHC-119" vertex="1">
                    <mxGeometry x="170.49228724489797" width="30.00612244897959" height="38.33865814696486" as="geometry"/>
                </mxCell>
                <mxCell id="Nn5DPpM4tVmi9wcYqOHC-145" value="" style="html=1;shadow=0;dashed=0;shape=mxgraph.bootstrap.rrect;rSize=5;strokeColor=none;html=1;whiteSpace=wrap;fillColor=#B8B8B8;fontColor=#ffffff;sketch=0;" parent="2" vertex="1">
                    <mxGeometry x="16.9" y="81.46964856230032" width="50.699999999999996" height="37.38019169329073" as="geometry"/>
                </mxCell>
                <mxCell id="Nn5DPpM4tVmi9wcYqOHC-148" value="---" style="strokeColor=inherit;fillColor=inherit;gradientColor=inherit;fontColor=inherit;html=1;shadow=0;dashed=0;shape=mxgraph.bootstrap.rightButton;rSize=5;perimeter=none;whiteSpace=wrap;resizeHeight=1;align=left;spacing=10;sketch=0;" parent="Nn5DPpM4tVmi9wcYqOHC-145" vertex="1">
                    <mxGeometry x="1" width="42" height="37.38019169329073" relative="1" as="geometry">
                        <mxPoint x="-42" as="offset"/>
                    </mxGeometry>
                </mxCell>
                <mxCell id="Nn5DPpM4tVmi9wcYqOHC-149" value="" style="shape=triangle;direction=south;fillColor=#ffffff;strokeColor=none;perimeter=none;sketch=0;" parent="Nn5DPpM4tVmi9wcYqOHC-148" vertex="1">
                    <mxGeometry x="1" y="0.5" width="10" height="5" relative="1" as="geometry">
                        <mxPoint x="-17" y="-2.5" as="offset"/>
                    </mxGeometry>
                </mxCell>
                <mxCell id="Nn5DPpM4tVmi9wcYqOHC-420" value="" style="group" parent="2" vertex="1" connectable="0">
                    <mxGeometry x="52.39" y="369.9680511182109" width="284.3425" height="230.03194888178913" as="geometry"/>
                </mxCell>
                <mxCell id="Nn5DPpM4tVmi9wcYqOHC-412" value="" style="group" parent="Nn5DPpM4tVmi9wcYqOHC-420" vertex="1" connectable="0">
                    <mxGeometry x="31.265" width="253.0775" height="230.03194888178913" as="geometry"/>
                </mxCell>
                <mxCell id="Nn5DPpM4tVmi9wcYqOHC-352" value="" style="group" parent="Nn5DPpM4tVmi9wcYqOHC-412" vertex="1" connectable="0">
                    <mxGeometry width="221.8125" height="230.03194888178913" as="geometry"/>
                </mxCell>
                <mxCell id="Nn5DPpM4tVmi9wcYqOHC-310" value="" style="strokeWidth=1;shadow=0;dashed=0;align=center;html=1;shape=mxgraph.mockup.forms.rrect;rSize=0;strokeColor=#999999;fontColor=#999999;fillColor=#B8B8B8;" parent="Nn5DPpM4tVmi9wcYqOHC-352" vertex="1">
                    <mxGeometry width="31.6875" height="38.33865814696486" as="geometry"/>
                </mxCell>
                <mxCell id="Nn5DPpM4tVmi9wcYqOHC-311" value="" style="strokeWidth=1;shadow=0;dashed=0;align=center;html=1;shape=mxgraph.mockup.forms.rrect;rSize=0;strokeColor=#999999;fontColor=#999999;fillColor=#B8B8B8;" parent="Nn5DPpM4tVmi9wcYqOHC-352" vertex="1">
                    <mxGeometry x="31.6875" width="31.6875" height="38.33865814696486" as="geometry"/>
                </mxCell>
                <mxCell id="Nn5DPpM4tVmi9wcYqOHC-312" value="" style="strokeWidth=1;shadow=0;dashed=0;align=center;html=1;shape=mxgraph.mockup.forms.rrect;rSize=0;strokeColor=#999999;fontColor=#999999;fillColor=#B8B8B8;" parent="Nn5DPpM4tVmi9wcYqOHC-352" vertex="1">
                    <mxGeometry x="63.375" width="31.6875" height="38.33865814696486" as="geometry"/>
                </mxCell>
                <mxCell id="Nn5DPpM4tVmi9wcYqOHC-313" value="" style="strokeWidth=1;shadow=0;dashed=0;align=center;html=1;shape=mxgraph.mockup.forms.rrect;rSize=0;strokeColor=#999999;fontColor=#999999;fillColor=#B8B8B8;" parent="Nn5DPpM4tVmi9wcYqOHC-352" vertex="1">
                    <mxGeometry x="95.0625" width="31.6875" height="38.33865814696486" as="geometry"/>
                </mxCell>
                <mxCell id="Nn5DPpM4tVmi9wcYqOHC-314" value="" style="strokeWidth=1;shadow=0;dashed=0;align=center;html=1;shape=mxgraph.mockup.forms.rrect;rSize=0;strokeColor=#999999;fontColor=#999999;fillColor=#B8B8B8;" parent="Nn5DPpM4tVmi9wcYqOHC-352" vertex="1">
                    <mxGeometry x="126.75" width="31.6875" height="38.33865814696486" as="geometry"/>
                </mxCell>
                <mxCell id="Nn5DPpM4tVmi9wcYqOHC-315" value="" style="strokeWidth=1;shadow=0;dashed=0;align=center;html=1;shape=mxgraph.mockup.forms.rrect;rSize=0;strokeColor=#999999;fontColor=#999999;fillColor=#B8B8B8;" parent="Nn5DPpM4tVmi9wcYqOHC-352" vertex="1">
                    <mxGeometry x="158.4375" width="31.6875" height="38.33865814696486" as="geometry"/>
                </mxCell>
                <mxCell id="Nn5DPpM4tVmi9wcYqOHC-316" value="" style="strokeWidth=1;shadow=0;dashed=0;align=center;html=1;shape=mxgraph.mockup.forms.rrect;rSize=0;strokeColor=#999999;fontColor=#999999;fillColor=#B8B8B8;" parent="Nn5DPpM4tVmi9wcYqOHC-352" vertex="1">
                    <mxGeometry x="190.125" width="31.6875" height="38.33865814696486" as="geometry"/>
                </mxCell>
                <mxCell id="Nn5DPpM4tVmi9wcYqOHC-317" value="" style="strokeWidth=1;shadow=0;dashed=0;align=center;html=1;shape=mxgraph.mockup.forms.rrect;rSize=0;strokeColor=#999999;fontColor=#999999;fillColor=#B8B8B8;" parent="Nn5DPpM4tVmi9wcYqOHC-352" vertex="1">
                    <mxGeometry y="38.33865814696486" width="31.6875" height="38.33865814696486" as="geometry"/>
                </mxCell>
                <mxCell id="Nn5DPpM4tVmi9wcYqOHC-318" value="" style="strokeWidth=1;shadow=0;dashed=0;align=center;html=1;shape=mxgraph.mockup.forms.rrect;rSize=0;strokeColor=#999999;fontColor=#999999;fillColor=#B8B8B8;" parent="Nn5DPpM4tVmi9wcYqOHC-352" vertex="1">
                    <mxGeometry x="31.6875" y="38.33865814696486" width="31.6875" height="38.33865814696486" as="geometry"/>
                </mxCell>
                <mxCell id="Nn5DPpM4tVmi9wcYqOHC-319" value="" style="strokeWidth=1;shadow=0;dashed=0;align=center;html=1;shape=mxgraph.mockup.forms.rrect;rSize=0;strokeColor=#999999;fontColor=#999999;fillColor=#B8B8B8;" parent="Nn5DPpM4tVmi9wcYqOHC-352" vertex="1">
                    <mxGeometry x="63.375" y="38.33865814696486" width="31.6875" height="38.33865814696486" as="geometry"/>
                </mxCell>
                <mxCell id="Nn5DPpM4tVmi9wcYqOHC-320" value="" style="strokeWidth=1;shadow=0;dashed=0;align=center;html=1;shape=mxgraph.mockup.forms.rrect;rSize=0;strokeColor=#999999;fontColor=#999999;fillColor=#B8B8B8;" parent="Nn5DPpM4tVmi9wcYqOHC-352" vertex="1">
                    <mxGeometry x="95.0625" y="38.33865814696486" width="31.6875" height="38.33865814696486" as="geometry"/>
                </mxCell>
                <mxCell id="Nn5DPpM4tVmi9wcYqOHC-321" value="" style="strokeWidth=1;shadow=0;dashed=0;align=center;html=1;shape=mxgraph.mockup.forms.rrect;rSize=0;strokeColor=#999999;fontColor=#999999;fillColor=#B8B8B8;" parent="Nn5DPpM4tVmi9wcYqOHC-352" vertex="1">
                    <mxGeometry x="126.75" y="38.33865814696486" width="31.6875" height="38.33865814696486" as="geometry"/>
                </mxCell>
                <mxCell id="Nn5DPpM4tVmi9wcYqOHC-322" value="" style="strokeWidth=1;shadow=0;dashed=0;align=center;html=1;shape=mxgraph.mockup.forms.rrect;rSize=0;strokeColor=#999999;fontColor=#999999;fillColor=#B8B8B8;" parent="Nn5DPpM4tVmi9wcYqOHC-352" vertex="1">
                    <mxGeometry x="158.4375" y="38.33865814696486" width="31.6875" height="38.33865814696486" as="geometry"/>
                </mxCell>
                <mxCell id="Nn5DPpM4tVmi9wcYqOHC-323" value="" style="strokeWidth=1;shadow=0;dashed=0;align=center;html=1;shape=mxgraph.mockup.forms.rrect;rSize=0;strokeColor=#999999;fontColor=#999999;fillColor=#B8B8B8;" parent="Nn5DPpM4tVmi9wcYqOHC-352" vertex="1">
                    <mxGeometry x="190.125" y="38.33865814696486" width="31.6875" height="38.33865814696486" as="geometry"/>
                </mxCell>
                <mxCell id="Nn5DPpM4tVmi9wcYqOHC-324" value="" style="strokeWidth=1;shadow=0;dashed=0;align=center;html=1;shape=mxgraph.mockup.forms.rrect;rSize=0;strokeColor=#999999;fontColor=#999999;fillColor=#B8B8B8;" parent="Nn5DPpM4tVmi9wcYqOHC-352" vertex="1">
                    <mxGeometry y="76.67731629392972" width="31.6875" height="38.33865814696486" as="geometry"/>
                </mxCell>
                <mxCell id="Nn5DPpM4tVmi9wcYqOHC-325" value="" style="strokeWidth=1;shadow=0;dashed=0;align=center;html=1;shape=mxgraph.mockup.forms.rrect;rSize=0;strokeColor=#999999;fontColor=#999999;fillColor=#B8B8B8;" parent="Nn5DPpM4tVmi9wcYqOHC-352" vertex="1">
                    <mxGeometry x="31.6875" y="76.67731629392972" width="31.6875" height="38.33865814696486" as="geometry"/>
                </mxCell>
                <mxCell id="Nn5DPpM4tVmi9wcYqOHC-326" value="" style="strokeWidth=1;shadow=0;dashed=0;align=center;html=1;shape=mxgraph.mockup.forms.rrect;rSize=0;strokeColor=#999999;fontColor=#999999;fillColor=#B8B8B8;" parent="Nn5DPpM4tVmi9wcYqOHC-352" vertex="1">
                    <mxGeometry x="63.375" y="76.67731629392972" width="31.6875" height="38.33865814696486" as="geometry"/>
                </mxCell>
                <mxCell id="Nn5DPpM4tVmi9wcYqOHC-327" value="" style="strokeWidth=1;shadow=0;dashed=0;align=center;html=1;shape=mxgraph.mockup.forms.rrect;rSize=0;strokeColor=#999999;fontColor=#999999;fillColor=#B8B8B8;" parent="Nn5DPpM4tVmi9wcYqOHC-352" vertex="1">
                    <mxGeometry x="95.0625" y="76.67731629392972" width="31.6875" height="38.33865814696486" as="geometry"/>
                </mxCell>
                <mxCell id="Nn5DPpM4tVmi9wcYqOHC-328" value="" style="strokeWidth=1;shadow=0;dashed=0;align=center;html=1;shape=mxgraph.mockup.forms.rrect;rSize=0;strokeColor=#999999;fontColor=#999999;fillColor=#B8B8B8;" parent="Nn5DPpM4tVmi9wcYqOHC-352" vertex="1">
                    <mxGeometry x="126.75" y="76.67731629392972" width="31.6875" height="38.33865814696486" as="geometry"/>
                </mxCell>
                <mxCell id="Nn5DPpM4tVmi9wcYqOHC-329" value="" style="strokeWidth=1;shadow=0;dashed=0;align=center;html=1;shape=mxgraph.mockup.forms.rrect;rSize=0;strokeColor=#999999;fontColor=#999999;fillColor=#B8B8B8;" parent="Nn5DPpM4tVmi9wcYqOHC-352" vertex="1">
                    <mxGeometry x="158.4375" y="76.67731629392972" width="31.6875" height="38.33865814696486" as="geometry"/>
                </mxCell>
                <mxCell id="Nn5DPpM4tVmi9wcYqOHC-330" value="" style="strokeWidth=1;shadow=0;dashed=0;align=center;html=1;shape=mxgraph.mockup.forms.rrect;rSize=0;strokeColor=#999999;fontColor=#999999;fillColor=#B8B8B8;" parent="Nn5DPpM4tVmi9wcYqOHC-352" vertex="1">
                    <mxGeometry x="190.125" y="76.67731629392972" width="31.6875" height="38.33865814696486" as="geometry"/>
                </mxCell>
                <mxCell id="Nn5DPpM4tVmi9wcYqOHC-331" value="" style="strokeWidth=1;shadow=0;dashed=0;align=center;html=1;shape=mxgraph.mockup.forms.rrect;rSize=0;strokeColor=#999999;fontColor=#999999;fillColor=#B8B8B8;" parent="Nn5DPpM4tVmi9wcYqOHC-352" vertex="1">
                    <mxGeometry y="115.01597444089457" width="31.6875" height="38.33865814696486" as="geometry"/>
                </mxCell>
                <mxCell id="Nn5DPpM4tVmi9wcYqOHC-332" value="" style="strokeWidth=1;shadow=0;dashed=0;align=center;html=1;shape=mxgraph.mockup.forms.rrect;rSize=0;strokeColor=#999999;fontColor=#999999;fillColor=#B8B8B8;" parent="Nn5DPpM4tVmi9wcYqOHC-352" vertex="1">
                    <mxGeometry x="31.6875" y="115.01597444089457" width="31.6875" height="38.33865814696486" as="geometry"/>
                </mxCell>
                <mxCell id="Nn5DPpM4tVmi9wcYqOHC-333" value="" style="strokeWidth=1;shadow=0;dashed=0;align=center;html=1;shape=mxgraph.mockup.forms.rrect;rSize=0;strokeColor=#999999;fontColor=#999999;fillColor=#B8B8B8;" parent="Nn5DPpM4tVmi9wcYqOHC-352" vertex="1">
                    <mxGeometry x="63.375" y="115.01597444089457" width="31.6875" height="38.33865814696486" as="geometry"/>
                </mxCell>
                <mxCell id="Nn5DPpM4tVmi9wcYqOHC-334" value="" style="strokeWidth=1;shadow=0;dashed=0;align=center;html=1;shape=mxgraph.mockup.forms.rrect;rSize=0;strokeColor=#999999;fontColor=#999999;fillColor=#B8B8B8;" parent="Nn5DPpM4tVmi9wcYqOHC-352" vertex="1">
                    <mxGeometry x="95.0625" y="115.01597444089457" width="31.6875" height="38.33865814696486" as="geometry"/>
                </mxCell>
                <mxCell id="Nn5DPpM4tVmi9wcYqOHC-335" value="" style="strokeWidth=1;shadow=0;dashed=0;align=center;html=1;shape=mxgraph.mockup.forms.rrect;rSize=0;strokeColor=#999999;fontColor=#999999;fillColor=#B8B8B8;" parent="Nn5DPpM4tVmi9wcYqOHC-352" vertex="1">
                    <mxGeometry x="126.75" y="115.01597444089457" width="31.6875" height="38.33865814696486" as="geometry"/>
                </mxCell>
                <mxCell id="Nn5DPpM4tVmi9wcYqOHC-336" value="" style="strokeWidth=1;shadow=0;dashed=0;align=center;html=1;shape=mxgraph.mockup.forms.rrect;rSize=0;strokeColor=#999999;fontColor=#999999;fillColor=#B8B8B8;" parent="Nn5DPpM4tVmi9wcYqOHC-352" vertex="1">
                    <mxGeometry x="158.4375" y="115.01597444089457" width="31.6875" height="38.33865814696486" as="geometry"/>
                </mxCell>
                <mxCell id="Nn5DPpM4tVmi9wcYqOHC-337" value="" style="strokeWidth=1;shadow=0;dashed=0;align=center;html=1;shape=mxgraph.mockup.forms.rrect;rSize=0;strokeColor=#999999;fontColor=#999999;fillColor=#B8B8B8;" parent="Nn5DPpM4tVmi9wcYqOHC-352" vertex="1">
                    <mxGeometry x="190.125" y="115.01597444089457" width="31.6875" height="38.33865814696486" as="geometry"/>
                </mxCell>
                <mxCell id="Nn5DPpM4tVmi9wcYqOHC-338" value="" style="strokeWidth=1;shadow=0;dashed=0;align=center;html=1;shape=mxgraph.mockup.forms.rrect;rSize=0;strokeColor=#999999;fontColor=#999999;fillColor=#B8B8B8;" parent="Nn5DPpM4tVmi9wcYqOHC-352" vertex="1">
                    <mxGeometry y="153.35463258785944" width="31.6875" height="38.33865814696486" as="geometry"/>
                </mxCell>
                <mxCell id="Nn5DPpM4tVmi9wcYqOHC-339" value="" style="strokeWidth=1;shadow=0;dashed=0;align=center;html=1;shape=mxgraph.mockup.forms.rrect;rSize=0;strokeColor=#999999;fontColor=#999999;fillColor=#B8B8B8;" parent="Nn5DPpM4tVmi9wcYqOHC-352" vertex="1">
                    <mxGeometry x="31.6875" y="153.35463258785944" width="31.6875" height="38.33865814696486" as="geometry"/>
                </mxCell>
                <mxCell id="Nn5DPpM4tVmi9wcYqOHC-340" value="" style="strokeWidth=1;shadow=0;dashed=0;align=center;html=1;shape=mxgraph.mockup.forms.rrect;rSize=0;strokeColor=#999999;fontColor=#999999;fillColor=#B8B8B8;" parent="Nn5DPpM4tVmi9wcYqOHC-352" vertex="1">
                    <mxGeometry x="63.375" y="153.35463258785944" width="31.6875" height="38.33865814696486" as="geometry"/>
                </mxCell>
                <mxCell id="Nn5DPpM4tVmi9wcYqOHC-341" value="" style="strokeWidth=1;shadow=0;dashed=0;align=center;html=1;shape=mxgraph.mockup.forms.rrect;rSize=0;strokeColor=#999999;fontColor=#999999;fillColor=#B8B8B8;" parent="Nn5DPpM4tVmi9wcYqOHC-352" vertex="1">
                    <mxGeometry x="95.0625" y="153.35463258785944" width="31.6875" height="38.33865814696486" as="geometry"/>
                </mxCell>
                <mxCell id="Nn5DPpM4tVmi9wcYqOHC-342" value="" style="strokeWidth=1;shadow=0;dashed=0;align=center;html=1;shape=mxgraph.mockup.forms.rrect;rSize=0;strokeColor=#999999;fontColor=#999999;fillColor=#B8B8B8;" parent="Nn5DPpM4tVmi9wcYqOHC-352" vertex="1">
                    <mxGeometry x="126.75" y="153.35463258785944" width="31.6875" height="38.33865814696486" as="geometry"/>
                </mxCell>
                <mxCell id="Nn5DPpM4tVmi9wcYqOHC-343" value="" style="strokeWidth=1;shadow=0;dashed=0;align=center;html=1;shape=mxgraph.mockup.forms.rrect;rSize=0;strokeColor=#999999;fontColor=#999999;fillColor=#B8B8B8;" parent="Nn5DPpM4tVmi9wcYqOHC-352" vertex="1">
                    <mxGeometry x="158.4375" y="153.35463258785944" width="31.6875" height="38.33865814696486" as="geometry"/>
                </mxCell>
                <mxCell id="Nn5DPpM4tVmi9wcYqOHC-344" value="" style="strokeWidth=1;shadow=0;dashed=0;align=center;html=1;shape=mxgraph.mockup.forms.rrect;rSize=0;strokeColor=#999999;fontColor=#999999;fillColor=#B8B8B8;" parent="Nn5DPpM4tVmi9wcYqOHC-352" vertex="1">
                    <mxGeometry x="190.125" y="153.35463258785944" width="31.6875" height="38.33865814696486" as="geometry"/>
                </mxCell>
                <mxCell id="Nn5DPpM4tVmi9wcYqOHC-345" value="" style="strokeWidth=1;shadow=0;dashed=0;align=center;html=1;shape=mxgraph.mockup.forms.rrect;rSize=0;strokeColor=#999999;fontColor=#999999;fillColor=#B8B8B8;" parent="Nn5DPpM4tVmi9wcYqOHC-352" vertex="1">
                    <mxGeometry y="191.69329073482427" width="31.6875" height="38.33865814696486" as="geometry"/>
                </mxCell>
                <mxCell id="Nn5DPpM4tVmi9wcYqOHC-346" value="" style="strokeWidth=1;shadow=0;dashed=0;align=center;html=1;shape=mxgraph.mockup.forms.rrect;rSize=0;strokeColor=#999999;fontColor=#999999;fillColor=#B8B8B8;" parent="Nn5DPpM4tVmi9wcYqOHC-352" vertex="1">
                    <mxGeometry x="31.6875" y="191.69329073482427" width="31.6875" height="38.33865814696486" as="geometry"/>
                </mxCell>
                <mxCell id="Nn5DPpM4tVmi9wcYqOHC-347" value="" style="strokeWidth=1;shadow=0;dashed=0;align=center;html=1;shape=mxgraph.mockup.forms.rrect;rSize=0;strokeColor=#999999;fontColor=#999999;fillColor=#B8B8B8;" parent="Nn5DPpM4tVmi9wcYqOHC-352" vertex="1">
                    <mxGeometry x="63.375" y="191.69329073482427" width="31.6875" height="38.33865814696486" as="geometry"/>
                </mxCell>
                <mxCell id="Nn5DPpM4tVmi9wcYqOHC-348" value="" style="strokeWidth=1;shadow=0;dashed=0;align=center;html=1;shape=mxgraph.mockup.forms.rrect;rSize=0;strokeColor=#999999;fontColor=#999999;fillColor=#B8B8B8;" parent="Nn5DPpM4tVmi9wcYqOHC-352" vertex="1">
                    <mxGeometry x="95.0625" y="191.69329073482427" width="31.6875" height="38.33865814696486" as="geometry"/>
                </mxCell>
                <mxCell id="Nn5DPpM4tVmi9wcYqOHC-349" value="" style="strokeWidth=1;shadow=0;dashed=0;align=center;html=1;shape=mxgraph.mockup.forms.rrect;rSize=0;strokeColor=#999999;fontColor=#999999;fillColor=#B8B8B8;" parent="Nn5DPpM4tVmi9wcYqOHC-352" vertex="1">
                    <mxGeometry x="126.75" y="191.69329073482427" width="31.6875" height="38.33865814696486" as="geometry"/>
                </mxCell>
                <mxCell id="Nn5DPpM4tVmi9wcYqOHC-350" value="" style="strokeWidth=1;shadow=0;dashed=0;align=center;html=1;shape=mxgraph.mockup.forms.rrect;rSize=0;strokeColor=#999999;fontColor=#999999;fillColor=#B8B8B8;" parent="Nn5DPpM4tVmi9wcYqOHC-352" vertex="1">
                    <mxGeometry x="158.4375" y="191.69329073482427" width="31.6875" height="38.33865814696486" as="geometry"/>
                </mxCell>
                <mxCell id="Nn5DPpM4tVmi9wcYqOHC-351" value="" style="strokeWidth=1;shadow=0;dashed=0;align=center;html=1;shape=mxgraph.mockup.forms.rrect;rSize=0;strokeColor=#999999;fontColor=#999999;fillColor=#B8B8B8;" parent="Nn5DPpM4tVmi9wcYqOHC-352" vertex="1">
                    <mxGeometry x="190.125" y="191.69329073482427" width="31.6875" height="38.33865814696486" as="geometry"/>
                </mxCell>
                <mxCell id="Nn5DPpM4tVmi9wcYqOHC-410" value="" style="group" parent="Nn5DPpM4tVmi9wcYqOHC-412" vertex="1" connectable="0">
                    <mxGeometry x="221.39" width="31.6875" height="230.03194888178913" as="geometry"/>
                </mxCell>
                <mxCell id="Nn5DPpM4tVmi9wcYqOHC-404" value="" style="strokeWidth=1;shadow=0;dashed=0;align=center;html=1;shape=mxgraph.mockup.forms.rrect;rSize=0;strokeColor=#999999;fontColor=#999999;fillColor=#B8B8B8;" parent="Nn5DPpM4tVmi9wcYqOHC-410" vertex="1">
                    <mxGeometry width="31.6875" height="38.33865814696486" as="geometry"/>
                </mxCell>
                <mxCell id="Nn5DPpM4tVmi9wcYqOHC-405" value="" style="strokeWidth=1;shadow=0;dashed=0;align=center;html=1;shape=mxgraph.mockup.forms.rrect;rSize=0;strokeColor=#999999;fontColor=#999999;fillColor=#B8B8B8;" parent="Nn5DPpM4tVmi9wcYqOHC-410" vertex="1">
                    <mxGeometry y="38.33865814696486" width="31.6875" height="38.33865814696486" as="geometry"/>
                </mxCell>
                <mxCell id="Nn5DPpM4tVmi9wcYqOHC-406" value="" style="strokeWidth=1;shadow=0;dashed=0;align=center;html=1;shape=mxgraph.mockup.forms.rrect;rSize=0;strokeColor=#999999;fontColor=#999999;fillColor=#B8B8B8;" parent="Nn5DPpM4tVmi9wcYqOHC-410" vertex="1">
                    <mxGeometry y="76.67731629392972" width="31.6875" height="38.33865814696486" as="geometry"/>
                </mxCell>
                <mxCell id="Nn5DPpM4tVmi9wcYqOHC-407" value="" style="strokeWidth=1;shadow=0;dashed=0;align=center;html=1;shape=mxgraph.mockup.forms.rrect;rSize=0;strokeColor=#999999;fontColor=#999999;fillColor=#B8B8B8;" parent="Nn5DPpM4tVmi9wcYqOHC-410" vertex="1">
                    <mxGeometry y="115.01597444089457" width="31.6875" height="38.33865814696486" as="geometry"/>
                </mxCell>
                <mxCell id="Nn5DPpM4tVmi9wcYqOHC-408" value="" style="strokeWidth=1;shadow=0;dashed=0;align=center;html=1;shape=mxgraph.mockup.forms.rrect;rSize=0;strokeColor=#999999;fontColor=#999999;fillColor=#B8B8B8;" parent="Nn5DPpM4tVmi9wcYqOHC-410" vertex="1">
                    <mxGeometry y="153.35463258785944" width="31.6875" height="38.33865814696486" as="geometry"/>
                </mxCell>
                <mxCell id="Nn5DPpM4tVmi9wcYqOHC-409" value="" style="strokeWidth=1;shadow=0;dashed=0;align=center;html=1;shape=mxgraph.mockup.forms.rrect;rSize=0;strokeColor=#999999;fontColor=#999999;fillColor=#B8B8B8;" parent="Nn5DPpM4tVmi9wcYqOHC-410" vertex="1">
                    <mxGeometry y="191.69329073482427" width="31.6875" height="38.33865814696486" as="geometry"/>
                </mxCell>
                <mxCell id="Nn5DPpM4tVmi9wcYqOHC-56" value="&lt;font color=&quot;#000000&quot;&gt;+&lt;/font&gt;" style="strokeWidth=1;shadow=0;dashed=0;align=center;html=1;shape=mxgraph.mockup.buttons.button;strokeColor=#666666;fontColor=#ffffff;mainText=;buttonStyle=round;fontSize=17;fontStyle=1;fillColor=#FFFFFF;whiteSpace=wrap;" parent="Nn5DPpM4tVmi9wcYqOHC-410" vertex="1">
                    <mxGeometry x="-26.195" y="161.9808306709265" width="42.25" height="47.92332268370607" as="geometry"/>
                </mxCell>
                <mxCell id="Nn5DPpM4tVmi9wcYqOHC-419" value="" style="group" parent="Nn5DPpM4tVmi9wcYqOHC-420" vertex="1" connectable="0">
                    <mxGeometry width="31.6875" height="230.03194888178913" as="geometry"/>
                </mxCell>
                <mxCell id="Nn5DPpM4tVmi9wcYqOHC-413" value="" style="strokeWidth=1;shadow=0;dashed=0;align=center;html=1;shape=mxgraph.mockup.forms.rrect;rSize=0;strokeColor=#999999;fontColor=#999999;fillColor=#B8B8B8;" parent="Nn5DPpM4tVmi9wcYqOHC-419" vertex="1">
                    <mxGeometry width="31.6875" height="38.33865814696486" as="geometry"/>
                </mxCell>
                <mxCell id="Nn5DPpM4tVmi9wcYqOHC-414" value="" style="strokeWidth=1;shadow=0;dashed=0;align=center;html=1;shape=mxgraph.mockup.forms.rrect;rSize=0;strokeColor=#999999;fontColor=#999999;fillColor=#B8B8B8;" parent="Nn5DPpM4tVmi9wcYqOHC-419" vertex="1">
                    <mxGeometry y="38.33865814696486" width="31.6875" height="38.33865814696486" as="geometry"/>
                </mxCell>
                <mxCell id="Nn5DPpM4tVmi9wcYqOHC-415" value="" style="strokeWidth=1;shadow=0;dashed=0;align=center;html=1;shape=mxgraph.mockup.forms.rrect;rSize=0;strokeColor=#999999;fontColor=#999999;fillColor=#B8B8B8;" parent="Nn5DPpM4tVmi9wcYqOHC-419" vertex="1">
                    <mxGeometry y="76.67731629392972" width="31.6875" height="38.33865814696486" as="geometry"/>
                </mxCell>
                <mxCell id="Nn5DPpM4tVmi9wcYqOHC-416" value="" style="strokeWidth=1;shadow=0;dashed=0;align=center;html=1;shape=mxgraph.mockup.forms.rrect;rSize=0;strokeColor=#999999;fontColor=#999999;fillColor=#B8B8B8;" parent="Nn5DPpM4tVmi9wcYqOHC-419" vertex="1">
                    <mxGeometry y="115.01597444089457" width="31.6875" height="38.33865814696486" as="geometry"/>
                </mxCell>
                <mxCell id="Nn5DPpM4tVmi9wcYqOHC-417" value="" style="strokeWidth=1;shadow=0;dashed=0;align=center;html=1;shape=mxgraph.mockup.forms.rrect;rSize=0;strokeColor=#999999;fontColor=#999999;fillColor=#B8B8B8;" parent="Nn5DPpM4tVmi9wcYqOHC-419" vertex="1">
                    <mxGeometry y="153.35463258785944" width="31.6875" height="38.33865814696486" as="geometry"/>
                </mxCell>
                <mxCell id="Nn5DPpM4tVmi9wcYqOHC-418" value="" style="strokeWidth=1;shadow=0;dashed=0;align=center;html=1;shape=mxgraph.mockup.forms.rrect;rSize=0;strokeColor=#999999;fontColor=#999999;fillColor=#B8B8B8;" parent="Nn5DPpM4tVmi9wcYqOHC-419" vertex="1">
                    <mxGeometry y="191.69329073482427" width="31.6875" height="38.33865814696486" as="geometry"/>
                </mxCell>
                <mxCell id="Nn5DPpM4tVmi9wcYqOHC-421" value="" style="group" parent="2" vertex="1" connectable="0">
                    <mxGeometry x="52.39" y="138.9776357827476" width="284.3425" height="230.03194888178913" as="geometry"/>
                </mxCell>
                <mxCell id="Nn5DPpM4tVmi9wcYqOHC-422" value="" style="group" parent="Nn5DPpM4tVmi9wcYqOHC-421" vertex="1" connectable="0">
                    <mxGeometry x="31.265" width="253.0775" height="230.03194888178913" as="geometry"/>
                </mxCell>
                <mxCell id="Nn5DPpM4tVmi9wcYqOHC-423" value="" style="group" parent="Nn5DPpM4tVmi9wcYqOHC-422" vertex="1" connectable="0">
                    <mxGeometry width="221.8125" height="230.03194888178913" as="geometry"/>
                </mxCell>
                <mxCell id="Nn5DPpM4tVmi9wcYqOHC-424" value="" style="strokeWidth=1;shadow=0;dashed=0;align=center;html=1;shape=mxgraph.mockup.forms.rrect;rSize=0;strokeColor=#999999;fontColor=#999999;fillColor=#B8B8B8;" parent="Nn5DPpM4tVmi9wcYqOHC-423" vertex="1">
                    <mxGeometry width="31.6875" height="38.33865814696486" as="geometry"/>
                </mxCell>
                <mxCell id="Nn5DPpM4tVmi9wcYqOHC-425" value="" style="strokeWidth=1;shadow=0;dashed=0;align=center;html=1;shape=mxgraph.mockup.forms.rrect;rSize=0;strokeColor=#999999;fontColor=#999999;fillColor=#B8B8B8;" parent="Nn5DPpM4tVmi9wcYqOHC-423" vertex="1">
                    <mxGeometry x="31.6875" width="31.6875" height="38.33865814696486" as="geometry"/>
                </mxCell>
                <mxCell id="Nn5DPpM4tVmi9wcYqOHC-426" value="" style="strokeWidth=1;shadow=0;dashed=0;align=center;html=1;shape=mxgraph.mockup.forms.rrect;rSize=0;strokeColor=#999999;fontColor=#999999;fillColor=#B8B8B8;" parent="Nn5DPpM4tVmi9wcYqOHC-423" vertex="1">
                    <mxGeometry x="63.375" width="31.6875" height="38.33865814696486" as="geometry"/>
                </mxCell>
                <mxCell id="Nn5DPpM4tVmi9wcYqOHC-427" value="" style="strokeWidth=1;shadow=0;dashed=0;align=center;html=1;shape=mxgraph.mockup.forms.rrect;rSize=0;strokeColor=#999999;fontColor=#999999;fillColor=#B8B8B8;" parent="Nn5DPpM4tVmi9wcYqOHC-423" vertex="1">
                    <mxGeometry x="95.0625" width="31.6875" height="38.33865814696486" as="geometry"/>
                </mxCell>
                <mxCell id="Nn5DPpM4tVmi9wcYqOHC-428" value="" style="strokeWidth=1;shadow=0;dashed=0;align=center;html=1;shape=mxgraph.mockup.forms.rrect;rSize=0;strokeColor=#999999;fontColor=#999999;fillColor=#B8B8B8;" parent="Nn5DPpM4tVmi9wcYqOHC-423" vertex="1">
                    <mxGeometry x="126.75" width="31.6875" height="38.33865814696486" as="geometry"/>
                </mxCell>
                <mxCell id="Nn5DPpM4tVmi9wcYqOHC-429" value="" style="strokeWidth=1;shadow=0;dashed=0;align=center;html=1;shape=mxgraph.mockup.forms.rrect;rSize=0;strokeColor=#999999;fontColor=#999999;fillColor=#B8B8B8;" parent="Nn5DPpM4tVmi9wcYqOHC-423" vertex="1">
                    <mxGeometry x="158.4375" width="31.6875" height="38.33865814696486" as="geometry"/>
                </mxCell>
                <mxCell id="Nn5DPpM4tVmi9wcYqOHC-430" value="" style="strokeWidth=1;shadow=0;dashed=0;align=center;html=1;shape=mxgraph.mockup.forms.rrect;rSize=0;strokeColor=#999999;fontColor=#999999;fillColor=#B8B8B8;" parent="Nn5DPpM4tVmi9wcYqOHC-423" vertex="1">
                    <mxGeometry x="190.125" width="31.6875" height="38.33865814696486" as="geometry"/>
                </mxCell>
                <mxCell id="Nn5DPpM4tVmi9wcYqOHC-431" value="" style="strokeWidth=1;shadow=0;dashed=0;align=center;html=1;shape=mxgraph.mockup.forms.rrect;rSize=0;strokeColor=#999999;fontColor=#999999;fillColor=#B8B8B8;" parent="Nn5DPpM4tVmi9wcYqOHC-423" vertex="1">
                    <mxGeometry y="38.33865814696486" width="31.6875" height="38.33865814696486" as="geometry"/>
                </mxCell>
                <mxCell id="Nn5DPpM4tVmi9wcYqOHC-432" value="" style="strokeWidth=1;shadow=0;dashed=0;align=center;html=1;shape=mxgraph.mockup.forms.rrect;rSize=0;strokeColor=#999999;fontColor=#999999;fillColor=#B8B8B8;" parent="Nn5DPpM4tVmi9wcYqOHC-423" vertex="1">
                    <mxGeometry x="31.6875" y="38.33865814696486" width="31.6875" height="38.33865814696486" as="geometry"/>
                </mxCell>
                <mxCell id="Nn5DPpM4tVmi9wcYqOHC-433" value="" style="strokeWidth=1;shadow=0;dashed=0;align=center;html=1;shape=mxgraph.mockup.forms.rrect;rSize=0;strokeColor=#999999;fontColor=#999999;fillColor=#B8B8B8;" parent="Nn5DPpM4tVmi9wcYqOHC-423" vertex="1">
                    <mxGeometry x="63.375" y="38.33865814696486" width="31.6875" height="38.33865814696486" as="geometry"/>
                </mxCell>
                <mxCell id="Nn5DPpM4tVmi9wcYqOHC-434" value="" style="strokeWidth=1;shadow=0;dashed=0;align=center;html=1;shape=mxgraph.mockup.forms.rrect;rSize=0;strokeColor=#999999;fontColor=#999999;fillColor=#B8B8B8;" parent="Nn5DPpM4tVmi9wcYqOHC-423" vertex="1">
                    <mxGeometry x="95.0625" y="38.33865814696486" width="31.6875" height="38.33865814696486" as="geometry"/>
                </mxCell>
                <mxCell id="Nn5DPpM4tVmi9wcYqOHC-435" value="" style="strokeWidth=1;shadow=0;dashed=0;align=center;html=1;shape=mxgraph.mockup.forms.rrect;rSize=0;strokeColor=#999999;fontColor=#999999;fillColor=#B8B8B8;" parent="Nn5DPpM4tVmi9wcYqOHC-423" vertex="1">
                    <mxGeometry x="126.75" y="38.33865814696486" width="31.6875" height="38.33865814696486" as="geometry"/>
                </mxCell>
                <mxCell id="Nn5DPpM4tVmi9wcYqOHC-436" value="" style="strokeWidth=1;shadow=0;dashed=0;align=center;html=1;shape=mxgraph.mockup.forms.rrect;rSize=0;strokeColor=#999999;fontColor=#999999;fillColor=#B8B8B8;" parent="Nn5DPpM4tVmi9wcYqOHC-423" vertex="1">
                    <mxGeometry x="158.4375" y="38.33865814696486" width="31.6875" height="38.33865814696486" as="geometry"/>
                </mxCell>
                <mxCell id="Nn5DPpM4tVmi9wcYqOHC-437" value="" style="strokeWidth=1;shadow=0;dashed=0;align=center;html=1;shape=mxgraph.mockup.forms.rrect;rSize=0;strokeColor=#999999;fontColor=#999999;fillColor=#B8B8B8;" parent="Nn5DPpM4tVmi9wcYqOHC-423" vertex="1">
                    <mxGeometry x="190.125" y="38.33865814696486" width="31.6875" height="38.33865814696486" as="geometry"/>
                </mxCell>
                <mxCell id="Nn5DPpM4tVmi9wcYqOHC-438" value="" style="strokeWidth=1;shadow=0;dashed=0;align=center;html=1;shape=mxgraph.mockup.forms.rrect;rSize=0;strokeColor=#999999;fontColor=#999999;fillColor=#B8B8B8;" parent="Nn5DPpM4tVmi9wcYqOHC-423" vertex="1">
                    <mxGeometry y="76.67731629392972" width="31.6875" height="38.33865814696486" as="geometry"/>
                </mxCell>
                <mxCell id="Nn5DPpM4tVmi9wcYqOHC-439" value="" style="strokeWidth=1;shadow=0;dashed=0;align=center;html=1;shape=mxgraph.mockup.forms.rrect;rSize=0;strokeColor=#999999;fontColor=#999999;fillColor=#B8B8B8;" parent="Nn5DPpM4tVmi9wcYqOHC-423" vertex="1">
                    <mxGeometry x="31.6875" y="76.67731629392972" width="31.6875" height="38.33865814696486" as="geometry"/>
                </mxCell>
                <mxCell id="Nn5DPpM4tVmi9wcYqOHC-440" value="" style="strokeWidth=1;shadow=0;dashed=0;align=center;html=1;shape=mxgraph.mockup.forms.rrect;rSize=0;strokeColor=#999999;fontColor=#999999;fillColor=#B8B8B8;" parent="Nn5DPpM4tVmi9wcYqOHC-423" vertex="1">
                    <mxGeometry x="63.375" y="76.67731629392972" width="31.6875" height="38.33865814696486" as="geometry"/>
                </mxCell>
                <mxCell id="Nn5DPpM4tVmi9wcYqOHC-441" value="" style="strokeWidth=1;shadow=0;dashed=0;align=center;html=1;shape=mxgraph.mockup.forms.rrect;rSize=0;strokeColor=#999999;fontColor=#999999;fillColor=#B8B8B8;" parent="Nn5DPpM4tVmi9wcYqOHC-423" vertex="1">
                    <mxGeometry x="95.0625" y="76.67731629392972" width="31.6875" height="38.33865814696486" as="geometry"/>
                </mxCell>
                <mxCell id="Nn5DPpM4tVmi9wcYqOHC-442" value="" style="strokeWidth=1;shadow=0;dashed=0;align=center;html=1;shape=mxgraph.mockup.forms.rrect;rSize=0;strokeColor=#999999;fontColor=#999999;fillColor=#B8B8B8;" parent="Nn5DPpM4tVmi9wcYqOHC-423" vertex="1">
                    <mxGeometry x="126.75" y="76.67731629392972" width="31.6875" height="38.33865814696486" as="geometry"/>
                </mxCell>
                <mxCell id="Nn5DPpM4tVmi9wcYqOHC-443" value="" style="strokeWidth=1;shadow=0;dashed=0;align=center;html=1;shape=mxgraph.mockup.forms.rrect;rSize=0;strokeColor=#999999;fontColor=#999999;fillColor=#B8B8B8;" parent="Nn5DPpM4tVmi9wcYqOHC-423" vertex="1">
                    <mxGeometry x="158.4375" y="76.67731629392972" width="31.6875" height="38.33865814696486" as="geometry"/>
                </mxCell>
                <mxCell id="Nn5DPpM4tVmi9wcYqOHC-444" value="" style="strokeWidth=1;shadow=0;dashed=0;align=center;html=1;shape=mxgraph.mockup.forms.rrect;rSize=0;strokeColor=#999999;fontColor=#999999;fillColor=#B8B8B8;" parent="Nn5DPpM4tVmi9wcYqOHC-423" vertex="1">
                    <mxGeometry x="190.125" y="76.67731629392972" width="31.6875" height="38.33865814696486" as="geometry"/>
                </mxCell>
                <mxCell id="Nn5DPpM4tVmi9wcYqOHC-445" value="" style="strokeWidth=1;shadow=0;dashed=0;align=center;html=1;shape=mxgraph.mockup.forms.rrect;rSize=0;strokeColor=#999999;fontColor=#999999;fillColor=#B8B8B8;" parent="Nn5DPpM4tVmi9wcYqOHC-423" vertex="1">
                    <mxGeometry y="115.01597444089457" width="31.6875" height="38.33865814696486" as="geometry"/>
                </mxCell>
                <mxCell id="Nn5DPpM4tVmi9wcYqOHC-446" value="" style="strokeWidth=1;shadow=0;dashed=0;align=center;html=1;shape=mxgraph.mockup.forms.rrect;rSize=0;strokeColor=#999999;fontColor=#999999;fillColor=#B8B8B8;" parent="Nn5DPpM4tVmi9wcYqOHC-423" vertex="1">
                    <mxGeometry x="31.6875" y="115.01597444089457" width="31.6875" height="38.33865814696486" as="geometry"/>
                </mxCell>
                <mxCell id="Nn5DPpM4tVmi9wcYqOHC-447" value="" style="strokeWidth=1;shadow=0;dashed=0;align=center;html=1;shape=mxgraph.mockup.forms.rrect;rSize=0;strokeColor=#999999;fontColor=#999999;fillColor=#B8B8B8;" parent="Nn5DPpM4tVmi9wcYqOHC-423" vertex="1">
                    <mxGeometry x="63.375" y="115.01597444089457" width="31.6875" height="38.33865814696486" as="geometry"/>
                </mxCell>
                <mxCell id="Nn5DPpM4tVmi9wcYqOHC-448" value="" style="strokeWidth=1;shadow=0;dashed=0;align=center;html=1;shape=mxgraph.mockup.forms.rrect;rSize=0;strokeColor=#999999;fontColor=#999999;fillColor=#B8B8B8;" parent="Nn5DPpM4tVmi9wcYqOHC-423" vertex="1">
                    <mxGeometry x="95.0625" y="115.01597444089457" width="31.6875" height="38.33865814696486" as="geometry"/>
                </mxCell>
                <mxCell id="Nn5DPpM4tVmi9wcYqOHC-449" value="" style="strokeWidth=1;shadow=0;dashed=0;align=center;html=1;shape=mxgraph.mockup.forms.rrect;rSize=0;strokeColor=#999999;fontColor=#999999;fillColor=#B8B8B8;" parent="Nn5DPpM4tVmi9wcYqOHC-423" vertex="1">
                    <mxGeometry x="126.75" y="115.01597444089457" width="31.6875" height="38.33865814696486" as="geometry"/>
                </mxCell>
                <mxCell id="Nn5DPpM4tVmi9wcYqOHC-450" value="" style="strokeWidth=1;shadow=0;dashed=0;align=center;html=1;shape=mxgraph.mockup.forms.rrect;rSize=0;strokeColor=#999999;fontColor=#999999;fillColor=#B8B8B8;" parent="Nn5DPpM4tVmi9wcYqOHC-423" vertex="1">
                    <mxGeometry x="158.4375" y="115.01597444089457" width="31.6875" height="38.33865814696486" as="geometry"/>
                </mxCell>
                <mxCell id="Nn5DPpM4tVmi9wcYqOHC-451" value="" style="strokeWidth=1;shadow=0;dashed=0;align=center;html=1;shape=mxgraph.mockup.forms.rrect;rSize=0;strokeColor=#999999;fontColor=#999999;fillColor=#B8B8B8;" parent="Nn5DPpM4tVmi9wcYqOHC-423" vertex="1">
                    <mxGeometry x="190.125" y="115.01597444089457" width="31.6875" height="38.33865814696486" as="geometry"/>
                </mxCell>
                <mxCell id="Nn5DPpM4tVmi9wcYqOHC-452" value="" style="strokeWidth=1;shadow=0;dashed=0;align=center;html=1;shape=mxgraph.mockup.forms.rrect;rSize=0;strokeColor=#999999;fontColor=#999999;fillColor=#B8B8B8;" parent="Nn5DPpM4tVmi9wcYqOHC-423" vertex="1">
                    <mxGeometry y="153.35463258785944" width="31.6875" height="38.33865814696486" as="geometry"/>
                </mxCell>
                <mxCell id="Nn5DPpM4tVmi9wcYqOHC-453" value="" style="strokeWidth=1;shadow=0;dashed=0;align=center;html=1;shape=mxgraph.mockup.forms.rrect;rSize=0;strokeColor=#999999;fontColor=#999999;fillColor=#B8B8B8;" parent="Nn5DPpM4tVmi9wcYqOHC-423" vertex="1">
                    <mxGeometry x="31.6875" y="153.35463258785944" width="31.6875" height="38.33865814696486" as="geometry"/>
                </mxCell>
                <mxCell id="Nn5DPpM4tVmi9wcYqOHC-454" value="" style="strokeWidth=1;shadow=0;dashed=0;align=center;html=1;shape=mxgraph.mockup.forms.rrect;rSize=0;strokeColor=#999999;fontColor=#999999;fillColor=#B8B8B8;" parent="Nn5DPpM4tVmi9wcYqOHC-423" vertex="1">
                    <mxGeometry x="63.375" y="153.35463258785944" width="31.6875" height="38.33865814696486" as="geometry"/>
                </mxCell>
                <mxCell id="Nn5DPpM4tVmi9wcYqOHC-455" value="" style="strokeWidth=1;shadow=0;dashed=0;align=center;html=1;shape=mxgraph.mockup.forms.rrect;rSize=0;strokeColor=#999999;fontColor=#999999;fillColor=#B8B8B8;" parent="Nn5DPpM4tVmi9wcYqOHC-423" vertex="1">
                    <mxGeometry x="95.0625" y="153.35463258785944" width="31.6875" height="38.33865814696486" as="geometry"/>
                </mxCell>
                <mxCell id="Nn5DPpM4tVmi9wcYqOHC-456" value="" style="strokeWidth=1;shadow=0;dashed=0;align=center;html=1;shape=mxgraph.mockup.forms.rrect;rSize=0;strokeColor=#999999;fontColor=#999999;fillColor=#B8B8B8;" parent="Nn5DPpM4tVmi9wcYqOHC-423" vertex="1">
                    <mxGeometry x="126.75" y="153.35463258785944" width="31.6875" height="38.33865814696486" as="geometry"/>
                </mxCell>
                <mxCell id="Nn5DPpM4tVmi9wcYqOHC-457" value="" style="strokeWidth=1;shadow=0;dashed=0;align=center;html=1;shape=mxgraph.mockup.forms.rrect;rSize=0;strokeColor=#999999;fontColor=#999999;fillColor=#B8B8B8;" parent="Nn5DPpM4tVmi9wcYqOHC-423" vertex="1">
                    <mxGeometry x="158.4375" y="153.35463258785944" width="31.6875" height="38.33865814696486" as="geometry"/>
                </mxCell>
                <mxCell id="Nn5DPpM4tVmi9wcYqOHC-458" value="" style="strokeWidth=1;shadow=0;dashed=0;align=center;html=1;shape=mxgraph.mockup.forms.rrect;rSize=0;strokeColor=#999999;fontColor=#999999;fillColor=#B8B8B8;" parent="Nn5DPpM4tVmi9wcYqOHC-423" vertex="1">
                    <mxGeometry x="190.125" y="153.35463258785944" width="31.6875" height="38.33865814696486" as="geometry"/>
                </mxCell>
                <mxCell id="Nn5DPpM4tVmi9wcYqOHC-459" value="" style="strokeWidth=1;shadow=0;dashed=0;align=center;html=1;shape=mxgraph.mockup.forms.rrect;rSize=0;strokeColor=#999999;fontColor=#999999;fillColor=#B8B8B8;" parent="Nn5DPpM4tVmi9wcYqOHC-423" vertex="1">
                    <mxGeometry y="191.69329073482427" width="31.6875" height="38.33865814696486" as="geometry"/>
                </mxCell>
                <mxCell id="Nn5DPpM4tVmi9wcYqOHC-460" value="" style="strokeWidth=1;shadow=0;dashed=0;align=center;html=1;shape=mxgraph.mockup.forms.rrect;rSize=0;strokeColor=#999999;fontColor=#999999;fillColor=#B8B8B8;" parent="Nn5DPpM4tVmi9wcYqOHC-423" vertex="1">
                    <mxGeometry x="31.6875" y="191.69329073482427" width="31.6875" height="38.33865814696486" as="geometry"/>
                </mxCell>
                <mxCell id="Nn5DPpM4tVmi9wcYqOHC-461" value="" style="strokeWidth=1;shadow=0;dashed=0;align=center;html=1;shape=mxgraph.mockup.forms.rrect;rSize=0;strokeColor=#999999;fontColor=#999999;fillColor=#B8B8B8;" parent="Nn5DPpM4tVmi9wcYqOHC-423" vertex="1">
                    <mxGeometry x="63.375" y="191.69329073482427" width="31.6875" height="38.33865814696486" as="geometry"/>
                </mxCell>
                <mxCell id="Nn5DPpM4tVmi9wcYqOHC-462" value="" style="strokeWidth=1;shadow=0;dashed=0;align=center;html=1;shape=mxgraph.mockup.forms.rrect;rSize=0;strokeColor=#999999;fontColor=#999999;fillColor=#B8B8B8;" parent="Nn5DPpM4tVmi9wcYqOHC-423" vertex="1">
                    <mxGeometry x="95.0625" y="191.69329073482427" width="31.6875" height="38.33865814696486" as="geometry"/>
                </mxCell>
                <mxCell id="Nn5DPpM4tVmi9wcYqOHC-463" value="" style="strokeWidth=1;shadow=0;dashed=0;align=center;html=1;shape=mxgraph.mockup.forms.rrect;rSize=0;strokeColor=#999999;fontColor=#999999;fillColor=#B8B8B8;" parent="Nn5DPpM4tVmi9wcYqOHC-423" vertex="1">
                    <mxGeometry x="126.75" y="191.69329073482427" width="31.6875" height="38.33865814696486" as="geometry"/>
                </mxCell>
                <mxCell id="Nn5DPpM4tVmi9wcYqOHC-464" value="" style="strokeWidth=1;shadow=0;dashed=0;align=center;html=1;shape=mxgraph.mockup.forms.rrect;rSize=0;strokeColor=#999999;fontColor=#999999;fillColor=#B8B8B8;" parent="Nn5DPpM4tVmi9wcYqOHC-423" vertex="1">
                    <mxGeometry x="158.4375" y="191.69329073482427" width="31.6875" height="38.33865814696486" as="geometry"/>
                </mxCell>
                <mxCell id="Nn5DPpM4tVmi9wcYqOHC-465" value="" style="strokeWidth=1;shadow=0;dashed=0;align=center;html=1;shape=mxgraph.mockup.forms.rrect;rSize=0;strokeColor=#999999;fontColor=#999999;fillColor=#B8B8B8;" parent="Nn5DPpM4tVmi9wcYqOHC-423" vertex="1">
                    <mxGeometry x="190.125" y="191.69329073482427" width="31.6875" height="38.33865814696486" as="geometry"/>
                </mxCell>
                <mxCell id="Nn5DPpM4tVmi9wcYqOHC-466" value="" style="group" parent="Nn5DPpM4tVmi9wcYqOHC-422" vertex="1" connectable="0">
                    <mxGeometry x="221.39" width="31.6875" height="230.03194888178913" as="geometry"/>
                </mxCell>
                <mxCell id="Nn5DPpM4tVmi9wcYqOHC-467" value="" style="strokeWidth=1;shadow=0;dashed=0;align=center;html=1;shape=mxgraph.mockup.forms.rrect;rSize=0;strokeColor=#999999;fontColor=#999999;fillColor=#B8B8B8;" parent="Nn5DPpM4tVmi9wcYqOHC-466" vertex="1">
                    <mxGeometry width="31.6875" height="38.33865814696486" as="geometry"/>
                </mxCell>
                <mxCell id="Nn5DPpM4tVmi9wcYqOHC-468" value="" style="strokeWidth=1;shadow=0;dashed=0;align=center;html=1;shape=mxgraph.mockup.forms.rrect;rSize=0;strokeColor=#999999;fontColor=#999999;fillColor=#B8B8B8;" parent="Nn5DPpM4tVmi9wcYqOHC-466" vertex="1">
                    <mxGeometry y="38.33865814696486" width="31.6875" height="38.33865814696486" as="geometry"/>
                </mxCell>
                <mxCell id="Nn5DPpM4tVmi9wcYqOHC-469" value="" style="strokeWidth=1;shadow=0;dashed=0;align=center;html=1;shape=mxgraph.mockup.forms.rrect;rSize=0;strokeColor=#999999;fontColor=#999999;fillColor=#B8B8B8;" parent="Nn5DPpM4tVmi9wcYqOHC-466" vertex="1">
                    <mxGeometry y="76.67731629392972" width="31.6875" height="38.33865814696486" as="geometry"/>
                </mxCell>
                <mxCell id="Nn5DPpM4tVmi9wcYqOHC-470" value="" style="strokeWidth=1;shadow=0;dashed=0;align=center;html=1;shape=mxgraph.mockup.forms.rrect;rSize=0;strokeColor=#999999;fontColor=#999999;fillColor=#B8B8B8;" parent="Nn5DPpM4tVmi9wcYqOHC-466" vertex="1">
                    <mxGeometry y="115.01597444089457" width="31.6875" height="38.33865814696486" as="geometry"/>
                </mxCell>
                <mxCell id="Nn5DPpM4tVmi9wcYqOHC-471" value="" style="strokeWidth=1;shadow=0;dashed=0;align=center;html=1;shape=mxgraph.mockup.forms.rrect;rSize=0;strokeColor=#999999;fontColor=#999999;fillColor=#B8B8B8;" parent="Nn5DPpM4tVmi9wcYqOHC-466" vertex="1">
                    <mxGeometry y="153.35463258785944" width="31.6875" height="38.33865814696486" as="geometry"/>
                </mxCell>
                <mxCell id="Nn5DPpM4tVmi9wcYqOHC-472" value="" style="strokeWidth=1;shadow=0;dashed=0;align=center;html=1;shape=mxgraph.mockup.forms.rrect;rSize=0;strokeColor=#999999;fontColor=#999999;fillColor=#B8B8B8;" parent="Nn5DPpM4tVmi9wcYqOHC-466" vertex="1">
                    <mxGeometry y="191.69329073482427" width="31.6875" height="38.33865814696486" as="geometry"/>
                </mxCell>
                <mxCell id="Nn5DPpM4tVmi9wcYqOHC-473" value="" style="group" parent="Nn5DPpM4tVmi9wcYqOHC-421" vertex="1" connectable="0">
                    <mxGeometry width="31.6875" height="230.03194888178913" as="geometry"/>
                </mxCell>
                <mxCell id="Nn5DPpM4tVmi9wcYqOHC-474" value="" style="strokeWidth=1;shadow=0;dashed=0;align=center;html=1;shape=mxgraph.mockup.forms.rrect;rSize=0;strokeColor=#999999;fontColor=#999999;fillColor=#B8B8B8;" parent="Nn5DPpM4tVmi9wcYqOHC-473" vertex="1">
                    <mxGeometry width="31.6875" height="38.33865814696486" as="geometry"/>
                </mxCell>
                <mxCell id="Nn5DPpM4tVmi9wcYqOHC-475" value="" style="strokeWidth=1;shadow=0;dashed=0;align=center;html=1;shape=mxgraph.mockup.forms.rrect;rSize=0;strokeColor=#999999;fontColor=#999999;fillColor=#B8B8B8;" parent="Nn5DPpM4tVmi9wcYqOHC-473" vertex="1">
                    <mxGeometry y="38.33865814696486" width="31.6875" height="38.33865814696486" as="geometry"/>
                </mxCell>
                <mxCell id="Nn5DPpM4tVmi9wcYqOHC-476" value="" style="strokeWidth=1;shadow=0;dashed=0;align=center;html=1;shape=mxgraph.mockup.forms.rrect;rSize=0;strokeColor=#999999;fontColor=#999999;fillColor=#B8B8B8;" parent="Nn5DPpM4tVmi9wcYqOHC-473" vertex="1">
                    <mxGeometry y="76.67731629392972" width="31.6875" height="38.33865814696486" as="geometry"/>
                </mxCell>
                <mxCell id="Nn5DPpM4tVmi9wcYqOHC-477" value="" style="strokeWidth=1;shadow=0;dashed=0;align=center;html=1;shape=mxgraph.mockup.forms.rrect;rSize=0;strokeColor=#999999;fontColor=#999999;fillColor=#B8B8B8;" parent="Nn5DPpM4tVmi9wcYqOHC-473" vertex="1">
                    <mxGeometry y="115.01597444089457" width="31.6875" height="38.33865814696486" as="geometry"/>
                </mxCell>
                <mxCell id="Nn5DPpM4tVmi9wcYqOHC-478" value="" style="strokeWidth=1;shadow=0;dashed=0;align=center;html=1;shape=mxgraph.mockup.forms.rrect;rSize=0;strokeColor=#999999;fontColor=#999999;fillColor=#B8B8B8;" parent="Nn5DPpM4tVmi9wcYqOHC-473" vertex="1">
                    <mxGeometry y="153.35463258785944" width="31.6875" height="38.33865814696486" as="geometry"/>
                </mxCell>
                <mxCell id="Nn5DPpM4tVmi9wcYqOHC-479" value="" style="strokeWidth=1;shadow=0;dashed=0;align=center;html=1;shape=mxgraph.mockup.forms.rrect;rSize=0;strokeColor=#999999;fontColor=#999999;fillColor=#B8B8B8;" parent="Nn5DPpM4tVmi9wcYqOHC-473" vertex="1">
                    <mxGeometry y="191.69329073482427" width="31.6875" height="38.33865814696486" as="geometry"/>
                </mxCell>
                <mxCell id="Nn5DPpM4tVmi9wcYqOHC-480" value="1:00&lt;br&gt;&lt;br&gt;2:00&lt;br&gt;&lt;br&gt;3:00&lt;br&gt;&lt;br&gt;4:00&lt;br&gt;&lt;br&gt;5:00&lt;br&gt;&lt;br&gt;6:00&lt;br&gt;&lt;br&gt;7:00&lt;br&gt;&lt;br&gt;8:00&lt;br&gt;&lt;br&gt;9:00&lt;br&gt;&lt;br&gt;10:00&lt;br&gt;&lt;br&gt;11:00&lt;br&gt;&lt;br&gt;12:00&lt;br&gt;&lt;br&gt;13:00&lt;br&gt;&lt;br&gt;14:00&lt;br&gt;&lt;br&gt;15:00&lt;br&gt;&lt;br&gt;16:00&lt;br&gt;" style="text;html=1;strokeColor=none;fillColor=none;align=center;verticalAlign=middle;whiteSpace=wrap;rounded=0;fontColor=#000000;" parent="2" vertex="1">
                    <mxGeometry y="138.9776357827476" width="50.699999999999996" height="431.30990415335464" as="geometry"/>
                </mxCell>
                <mxCell id="11" value="" style="group" vertex="1" connectable="0" parent="1">
                    <mxGeometry x="112" y="132" width="334" height="47" as="geometry"/>
                </mxCell>
                <mxCell id="6" value="" style="endArrow=none;html=1;rounded=0;" edge="1" parent="11">
                    <mxGeometry width="50" height="50" relative="1" as="geometry">
                        <mxPoint x="334" y="47" as="sourcePoint"/>
                        <mxPoint y="47" as="targetPoint"/>
                    </mxGeometry>
                </mxCell>
                <mxCell id="7" value="Code&amp;nbsp; &amp;nbsp;unt" style="text;html=1;align=center;verticalAlign=middle;resizable=0;points=[];autosize=1;strokeColor=none;fillColor=none;fontSize=26;fontStyle=1" vertex="1" parent="11">
                    <mxGeometry x="87" y="5" width="140" height="40" as="geometry"/>
                </mxCell>
                <mxCell id="8" value="" style="ellipse;whiteSpace=wrap;html=1;aspect=fixed;fontSize=22;" vertex="1" parent="11">
                    <mxGeometry x="292" y="7" width="30" height="30" as="geometry"/>
                </mxCell>
                <mxCell id="9" value="}{" style="text;html=1;align=center;verticalAlign=middle;resizable=0;points=[];autosize=1;strokeColor=none;fillColor=none;fontSize=26;fontStyle=1" vertex="1" parent="11">
                    <mxGeometry x="149.65999999999997" width="40" height="40" as="geometry"/>
                </mxCell>
                <mxCell id="10" value="&lt;p style=&quot;line-height: 0.7&quot;&gt;----&lt;br&gt;----&lt;br&gt;----&lt;/p&gt;" style="text;html=1;strokeColor=none;fillColor=none;align=center;verticalAlign=middle;whiteSpace=wrap;rounded=0;" vertex="1" parent="11">
                    <mxGeometry x="12" y="7" width="30" height="30" as="geometry"/>
                </mxCell>
            </root>
        </mxGraphModel>
    </diagram>
</mxfile>